<?xml version="1.0" encoding="UTF-8" standalone="no"?>
<!DOCTYPE svg PUBLIC "-//W3C//DTD SVG 1.1//EN"
 "http://www.w3.org/Graphics/SVG/1.1/DTD/svg11.dtd">
<!-- Generated by graphviz version 2.43.0 (0)
 -->
<!-- Title: OptimaTradingSystem Pages: 1 -->
<svg width="1930pt" height="862pt"
 viewBox="0.00 0.00 1930.00 861.50" xmlns="http://www.w3.org/2000/svg" xmlns:xlink="http://www.w3.org/1999/xlink">
<g id="graph0" class="graph" transform="scale(1 1) rotate(0) translate(4 857.5)">
<title>OptimaTradingSystem</title>
<polygon fill="white" stroke="transparent" points="-4,4 -4,-857.5 1926,-857.5 1926,4 -4,4"/>
<text text-anchor="middle" x="961" y="-836.7" font-family="Arial" font-size="16.00">Sistema Optimatrading &#45; Diagrama de Flujo Completo</text>
<g id="clust1" class="cluster">
<title>cluster_apis</title>
<polygon fill="lightgrey" stroke="lightgrey" points="8,-694.5 8,-803.5 842,-803.5 842,-694.5 8,-694.5"/>
<text text-anchor="middle" x="425" y="-786.7" font-family="Arial" font-size="16.00">APIs Externas</text>
</g>
<g id="clust2" class="cluster">
<title>cluster_modules</title>
<polygon fill="lightblue" stroke="lightblue" points="241,-295 241,-404 1689,-404 1689,-295 241,-295"/>
<text text-anchor="middle" x="965" y="-387.2" font-family="Arial" font-size="16.00">Módulos de Análisis</text>
</g>
<g id="clust3" class="cluster">
<title>cluster_support</title>
<polygon fill="lightyellow" stroke="lightyellow" points="553,-540.5 553,-649.5 1616,-649.5 1616,-540.5 553,-540.5"/>
<text text-anchor="middle" x="1084.5" y="-632.7" font-family="Arial" font-size="16.00">Componentes de Soporte</text>
</g>
<g id="clust7" class="cluster">
<title>cluster_legend</title>
<polygon fill="white" stroke="white" points="1119,-678.5 1119,-819.5 1339,-819.5 1339,-678.5 1119,-678.5"/>
<text text-anchor="middle" x="1229" y="-802.7" font-family="Arial" font-size="16.00">Leyenda</text>
</g>
<!-- binance -->
<g id="node1" class="node">
<title>binance</title>
<path fill="#ffcccc" stroke="black" d="M114.5,-743.5C114.5,-743.5 27.5,-743.5 27.5,-743.5 21.5,-743.5 15.5,-737.5 15.5,-731.5 15.5,-731.5 15.5,-714.5 15.5,-714.5 15.5,-708.5 21.5,-702.5 27.5,-702.5 27.5,-702.5 114.5,-702.5 114.5,-702.5 120.5,-702.5 126.5,-708.5 126.5,-714.5 126.5,-714.5 126.5,-731.5 126.5,-731.5 126.5,-737.5 120.5,-743.5 114.5,-743.5"/>
<text text-anchor="middle" x="71" y="-719.9" font-family="Arial" font-size="12.00">Binance API</text>
</g>
<!-- loader -->
<g id="node7" class="node">
<title>loader</title>
<polygon fill="#ccffcc" stroke="black" points="500,-596 332,-596 332,-592 328,-592 328,-588 332,-588 332,-550 328,-550 328,-546 332,-546 332,-542 500,-542 500,-596"/>
<polyline fill="none" stroke="black" points="332,-592 336,-592 336,-588 332,-588 "/>
<polyline fill="none" stroke="black" points="332,-550 336,-550 336,-546 332,-546 "/>
<text text-anchor="middle" x="416" y="-572.4" font-family="Arial" font-size="12.00">Loader</text>
<text text-anchor="middle" x="416" y="-559.4" font-family="Arial" font-size="12.00">(Recolección de datos)</text>
</g>
<!-- binance&#45;&gt;loader -->
<g id="edge1" class="edge">
<title>binance&#45;&gt;loader</title>
<path fill="none" stroke="black" d="M96.93,-702.39C108.25,-694.36 121.91,-685.36 135,-678.5 195.97,-646.55 268.54,-618.77 324.65,-599.32"/>
<polygon fill="black" stroke="black" points="325.9,-602.59 334.22,-596.02 323.63,-595.97 325.9,-602.59"/>
</g>
<!-- finnhub -->
<g id="node2" class="node">
<title>finnhub</title>
<path fill="#ffcccc" stroke="black" d="M243.5,-743.5C243.5,-743.5 156.5,-743.5 156.5,-743.5 150.5,-743.5 144.5,-737.5 144.5,-731.5 144.5,-731.5 144.5,-714.5 144.5,-714.5 144.5,-708.5 150.5,-702.5 156.5,-702.5 156.5,-702.5 243.5,-702.5 243.5,-702.5 249.5,-702.5 255.5,-708.5 255.5,-714.5 255.5,-714.5 255.5,-731.5 255.5,-731.5 255.5,-737.5 249.5,-743.5 243.5,-743.5"/>
<text text-anchor="middle" x="200" y="-719.9" font-family="Arial" font-size="12.00">Finnhub API</text>
</g>
<!-- finnhub&#45;&gt;loader -->
<g id="edge2" class="edge">
<title>finnhub&#45;&gt;loader</title>
<path fill="none" stroke="black" d="M227.8,-702.44C263.9,-677.03 327.4,-632.35 370.56,-601.97"/>
<polygon fill="black" stroke="black" points="372.74,-604.72 378.91,-596.1 368.72,-598.99 372.74,-604.72"/>
</g>
<!-- polygon -->
<g id="node3" class="node">
<title>polygon</title>
<path fill="#ffcccc" stroke="black" d="M386,-743.5C386,-743.5 286,-743.5 286,-743.5 280,-743.5 274,-737.5 274,-731.5 274,-731.5 274,-714.5 274,-714.5 274,-708.5 280,-702.5 286,-702.5 286,-702.5 386,-702.5 386,-702.5 392,-702.5 398,-708.5 398,-714.5 398,-714.5 398,-731.5 398,-731.5 398,-737.5 392,-743.5 386,-743.5"/>
<text text-anchor="middle" x="336" y="-719.9" font-family="Arial" font-size="12.00">Polygon.io API</text>
</g>
<!-- polygon&#45;&gt;loader -->
<g id="edge3" class="edge">
<title>polygon&#45;&gt;loader</title>
<path fill="none" stroke="black" d="M346.29,-702.44C359.22,-677.88 381.63,-635.3 397.55,-605.06"/>
<polygon fill="black" stroke="black" points="400.7,-606.58 402.26,-596.1 394.51,-603.32 400.7,-606.58"/>
</g>
<!-- twelvedata -->
<g id="node4" class="node">
<title>twelvedata</title>
<path fill="#ffcccc" stroke="black" d="M538,-743.5C538,-743.5 428,-743.5 428,-743.5 422,-743.5 416,-737.5 416,-731.5 416,-731.5 416,-714.5 416,-714.5 416,-708.5 422,-702.5 428,-702.5 428,-702.5 538,-702.5 538,-702.5 544,-702.5 550,-708.5 550,-714.5 550,-714.5 550,-731.5 550,-731.5 550,-737.5 544,-743.5 538,-743.5"/>
<text text-anchor="middle" x="483" y="-719.9" font-family="Arial" font-size="12.00">Twelve Data API</text>
</g>
<!-- twelvedata&#45;&gt;loader -->
<g id="edge4" class="edge">
<title>twelvedata&#45;&gt;loader</title>
<path fill="none" stroke="black" d="M474.38,-702.44C463.6,-677.99 444.95,-635.67 431.63,-605.45"/>
<polygon fill="black" stroke="black" points="434.74,-603.84 427.51,-596.1 428.34,-606.66 434.74,-603.84"/>
</g>
<!-- alphavantage -->
<g id="node5" class="node">
<title>alphavantage</title>
<path fill="#ffcccc" stroke="black" d="M701.5,-743.5C701.5,-743.5 580.5,-743.5 580.5,-743.5 574.5,-743.5 568.5,-737.5 568.5,-731.5 568.5,-731.5 568.5,-714.5 568.5,-714.5 568.5,-708.5 574.5,-702.5 580.5,-702.5 580.5,-702.5 701.5,-702.5 701.5,-702.5 707.5,-702.5 713.5,-708.5 713.5,-714.5 713.5,-714.5 713.5,-731.5 713.5,-731.5 713.5,-737.5 707.5,-743.5 701.5,-743.5"/>
<text text-anchor="middle" x="641" y="-719.9" font-family="Arial" font-size="12.00">Alpha Vantage API</text>
</g>
<!-- alphavantage&#45;&gt;loader -->
<g id="edge5" class="edge">
<title>alphavantage&#45;&gt;loader</title>
<path fill="none" stroke="black" d="M609.74,-702.38C594.87,-693.85 576.55,-684.47 559,-678.5 533.82,-669.94 523.13,-681.63 500,-668.5 473.43,-653.42 451.39,-626.57 436.56,-604.72"/>
<polygon fill="black" stroke="black" points="439.46,-602.75 431.04,-596.31 433.61,-606.59 439.46,-602.75"/>
</g>
<!-- ninjaapis -->
<g id="node6" class="node">
<title>ninjaapis</title>
<path fill="#ffcccc" stroke="black" d="M822,-743.5C822,-743.5 744,-743.5 744,-743.5 738,-743.5 732,-737.5 732,-731.5 732,-731.5 732,-714.5 732,-714.5 732,-708.5 738,-702.5 744,-702.5 744,-702.5 822,-702.5 822,-702.5 828,-702.5 834,-708.5 834,-714.5 834,-714.5 834,-731.5 834,-731.5 834,-737.5 828,-743.5 822,-743.5"/>
<text text-anchor="middle" x="783" y="-719.9" font-family="Arial" font-size="12.00">Ninja APIs</text>
</g>
<!-- ninjaapis&#45;&gt;loader -->
<g id="edge6" class="edge">
<title>ninjaapis&#45;&gt;loader</title>
<path fill="none" stroke="black" d="M762.25,-702.34C751.42,-693.35 737.44,-683.6 723,-678.5 682.08,-664.06 568.19,-684.85 528,-668.5 494.53,-654.89 464.27,-626.85 443.66,-604.15"/>
<polygon fill="black" stroke="black" points="446.04,-601.55 436.79,-596.38 440.79,-606.19 446.04,-601.55"/>
</g>
<!-- dispatcher -->
<g id="node8" class="node">
<title>dispatcher</title>
<polygon fill="#ccffff" stroke="black" points="960.5,-495 795.5,-495 795.5,-491 791.5,-491 791.5,-487 795.5,-487 795.5,-449 791.5,-449 791.5,-445 795.5,-445 795.5,-441 960.5,-441 960.5,-495"/>
<polyline fill="none" stroke="black" points="795.5,-491 799.5,-491 799.5,-487 795.5,-487 "/>
<polyline fill="none" stroke="black" points="795.5,-449 799.5,-449 799.5,-445 795.5,-445 "/>
<text text-anchor="middle" x="878" y="-471.4" font-family="Arial" font-size="12.00">Dispatcher</text>
<text text-anchor="middle" x="878" y="-458.4" font-family="Arial" font-size="12.00">(Distribución de datos)</text>
</g>
<!-- loader&#45;&gt;dispatcher -->
<g id="edge7" class="edge">
<title>loader&#45;&gt;dispatcher</title>
<path fill="none" stroke="black" d="M500.05,-550.49C516.28,-547.14 533.17,-543.69 549,-540.5 652.01,-519.75 678.64,-518.73 781,-495 782.46,-494.66 783.93,-494.32 785.41,-493.97"/>
<polygon fill="black" stroke="black" points="786.39,-497.33 795.28,-491.58 784.74,-490.53 786.39,-497.33"/>
<text text-anchor="middle" x="736" y="-516" font-family="Arial" font-size="10.00">Datos normalizados</text>
</g>
<!-- logging -->
<g id="node22" class="node">
<title>logging</title>
<path fill="white" stroke="black" d="M849.5,-589.5C849.5,-589.5 722.5,-589.5 722.5,-589.5 716.5,-589.5 710.5,-583.5 710.5,-577.5 710.5,-577.5 710.5,-560.5 710.5,-560.5 710.5,-554.5 716.5,-548.5 722.5,-548.5 722.5,-548.5 849.5,-548.5 849.5,-548.5 855.5,-548.5 861.5,-554.5 861.5,-560.5 861.5,-560.5 861.5,-577.5 861.5,-577.5 861.5,-583.5 855.5,-589.5 849.5,-589.5"/>
<text text-anchor="middle" x="786" y="-565.9" font-family="Arial" font-size="12.00">Sistema de Logging</text>
</g>
<!-- loader&#45;&gt;logging -->
<g id="edge9" class="edge">
<title>loader&#45;&gt;logging</title>
<path fill="none" stroke="black" stroke-dasharray="5,2" d="M451.86,-596.18C477.43,-613.78 513.45,-635.11 549,-644.5 614.75,-661.86 638.51,-668.84 702,-644.5 726.77,-635 748.82,-614.46 764.1,-597.2"/>
<polygon fill="black" stroke="black" points="766.8,-599.43 770.64,-589.55 761.48,-594.88 766.8,-599.43"/>
<text text-anchor="middle" x="642" y="-660.5" font-family="Arial" font-size="10.00">Registra eventos</text>
</g>
<!-- cache -->
<g id="node23" class="node">
<title>cache</title>
<path fill="white" stroke="black" d="M680.5,-589.5C680.5,-589.5 573.5,-589.5 573.5,-589.5 567.5,-589.5 561.5,-583.5 561.5,-577.5 561.5,-577.5 561.5,-560.5 561.5,-560.5 561.5,-554.5 567.5,-548.5 573.5,-548.5 573.5,-548.5 680.5,-548.5 680.5,-548.5 686.5,-548.5 692.5,-554.5 692.5,-560.5 692.5,-560.5 692.5,-577.5 692.5,-577.5 692.5,-583.5 686.5,-589.5 680.5,-589.5"/>
<text text-anchor="middle" x="627" y="-565.9" font-family="Arial" font-size="12.00">Caché de Datos</text>
</g>
<!-- loader&#45;&gt;cache -->
<g id="edge8" class="edge">
<title>loader&#45;&gt;cache</title>
<path fill="none" stroke="black" stroke-dasharray="5,2" d="M500.3,-569C517.13,-569 534.7,-569 551.22,-569"/>
<polygon fill="black" stroke="black" points="551.35,-572.5 561.35,-569 551.35,-565.5 551.35,-572.5"/>
<text text-anchor="middle" x="530.75" y="-575" font-family="Arial" font-size="10.00">Almacena</text>
</g>
<!-- broker_behavior -->
<g id="node12" class="node">
<title>broker_behavior</title>
<path fill="white" stroke="black" d="M1368.5,-344C1368.5,-344 1261.5,-344 1261.5,-344 1255.5,-344 1249.5,-338 1249.5,-332 1249.5,-332 1249.5,-315 1249.5,-315 1249.5,-309 1255.5,-303 1261.5,-303 1261.5,-303 1368.5,-303 1368.5,-303 1374.5,-303 1380.5,-309 1380.5,-315 1380.5,-315 1380.5,-332 1380.5,-332 1380.5,-338 1374.5,-344 1368.5,-344"/>
<text text-anchor="middle" x="1315" y="-320.4" font-family="Arial" font-size="12.00">Broker Behavior</text>
</g>
<!-- dispatcher&#45;&gt;broker_behavior -->
<g id="edge10" class="edge">
<title>dispatcher&#45;&gt;broker_behavior</title>
<path fill="none" stroke="black" d="M960.65,-444.12C965.49,-443 970.3,-441.95 975,-441 982.28,-439.52 1233.4,-407.41 1240,-404 1263.04,-392.11 1282.85,-370.26 1296.32,-352.47"/>
<polygon fill="black" stroke="black" points="1299.34,-354.27 1302.4,-344.13 1293.68,-350.15 1299.34,-354.27"/>
</g>
<!-- carry_trade -->
<g id="node13" class="node">
<title>carry_trade</title>
<path fill="white" stroke="black" d="M641,-344C641,-344 557,-344 557,-344 551,-344 545,-338 545,-332 545,-332 545,-315 545,-315 545,-309 551,-303 557,-303 557,-303 641,-303 641,-303 647,-303 653,-309 653,-315 653,-315 653,-332 653,-332 653,-338 647,-344 641,-344"/>
<text text-anchor="middle" x="599" y="-320.4" font-family="Arial" font-size="12.00">Carry Trade</text>
</g>
<!-- dispatcher&#45;&gt;carry_trade -->
<g id="edge11" class="edge">
<title>dispatcher&#45;&gt;carry_trade</title>
<path fill="none" stroke="black" d="M814.49,-440.88C787.06,-430.51 754.36,-419.32 724,-412 697.42,-405.59 686.84,-417.39 663,-404 642.08,-392.25 625.39,-370.69 614.3,-352.99"/>
<polygon fill="black" stroke="black" points="617.16,-350.94 609.02,-344.15 611.15,-354.53 617.16,-350.94"/>
</g>
<!-- dynamic_hedging -->
<g id="node14" class="node">
<title>dynamic_hedging</title>
<path fill="white" stroke="black" d="M1527.5,-344C1527.5,-344 1410.5,-344 1410.5,-344 1404.5,-344 1398.5,-338 1398.5,-332 1398.5,-332 1398.5,-315 1398.5,-315 1398.5,-309 1404.5,-303 1410.5,-303 1410.5,-303 1527.5,-303 1527.5,-303 1533.5,-303 1539.5,-309 1539.5,-315 1539.5,-315 1539.5,-332 1539.5,-332 1539.5,-338 1533.5,-344 1527.5,-344"/>
<text text-anchor="middle" x="1469" y="-320.4" font-family="Arial" font-size="12.00">Dynamic Hedging</text>
</g>
<!-- dispatcher&#45;&gt;dynamic_hedging -->
<g id="edge12" class="edge">
<title>dispatcher&#45;&gt;dynamic_hedging</title>
<path fill="none" stroke="black" d="M960.6,-443.87C965.46,-442.82 970.28,-441.85 975,-441 1058.48,-425.97 1080.65,-431.93 1165,-423 1206.83,-418.57 1217.1,-415.73 1259,-412 1288.05,-409.42 1363.43,-416.02 1390,-404 1414.6,-392.87 1435.74,-370.45 1449.94,-352.25"/>
<polygon fill="black" stroke="black" points="1452.76,-354.34 1455.97,-344.24 1447.16,-350.13 1452.76,-354.34"/>
</g>
<!-- liquidity_provision -->
<g id="node15" class="node">
<title>liquidity_provision</title>
<path fill="white" stroke="black" d="M380.5,-344C380.5,-344 261.5,-344 261.5,-344 255.5,-344 249.5,-338 249.5,-332 249.5,-332 249.5,-315 249.5,-315 249.5,-309 255.5,-303 261.5,-303 261.5,-303 380.5,-303 380.5,-303 386.5,-303 392.5,-309 392.5,-315 392.5,-315 392.5,-332 392.5,-332 392.5,-338 386.5,-344 380.5,-344"/>
<text text-anchor="middle" x="321" y="-320.4" font-family="Arial" font-size="12.00">Liquidity Provision</text>
</g>
<!-- dispatcher&#45;&gt;liquidity_provision -->
<g id="edge13" class="edge">
<title>dispatcher&#45;&gt;liquidity_provision</title>
<path fill="none" stroke="black" d="M795.4,-443.87C790.54,-442.82 785.72,-441.85 781,-441 614.43,-411 555.26,-475.8 402,-404 377.24,-392.4 355.53,-370.02 340.83,-351.96"/>
<polygon fill="black" stroke="black" points="343.52,-349.71 334.58,-344.01 338.01,-354.04 343.52,-349.71"/>
</g>
<!-- market_making -->
<g id="node16" class="node">
<title>market_making</title>
<path fill="white" stroke="black" d="M1668.5,-344C1668.5,-344 1569.5,-344 1569.5,-344 1563.5,-344 1557.5,-338 1557.5,-332 1557.5,-332 1557.5,-315 1557.5,-315 1557.5,-309 1563.5,-303 1569.5,-303 1569.5,-303 1668.5,-303 1668.5,-303 1674.5,-303 1680.5,-309 1680.5,-315 1680.5,-315 1680.5,-332 1680.5,-332 1680.5,-338 1674.5,-344 1668.5,-344"/>
<text text-anchor="middle" x="1619" y="-320.4" font-family="Arial" font-size="12.00">Market Making</text>
</g>
<!-- dispatcher&#45;&gt;market_making -->
<g id="edge14" class="edge">
<title>dispatcher&#45;&gt;market_making</title>
<path fill="none" stroke="black" d="M960.58,-443.74C965.44,-442.72 970.27,-441.8 975,-441 1085.29,-422.44 1114.61,-433 1226,-423 1271.41,-418.92 1282.52,-415.27 1328,-412 1352.51,-410.24 1526.8,-414.52 1549,-404 1571.85,-393.17 1590.35,-371.04 1602.58,-352.87"/>
<polygon fill="black" stroke="black" points="1605.6,-354.64 1608.07,-344.34 1599.71,-350.85 1605.6,-354.64"/>
</g>
<!-- pairs_trading -->
<g id="node17" class="node">
<title>pairs_trading</title>
<path fill="white" stroke="black" d="M515,-344C515,-344 423,-344 423,-344 417,-344 411,-338 411,-332 411,-332 411,-315 411,-315 411,-309 417,-303 423,-303 423,-303 515,-303 515,-303 521,-303 527,-309 527,-315 527,-315 527,-332 527,-332 527,-338 521,-344 515,-344"/>
<text text-anchor="middle" x="469" y="-320.4" font-family="Arial" font-size="12.00">Pairs Trading</text>
</g>
<!-- dispatcher&#45;&gt;pairs_trading -->
<g id="edge15" class="edge">
<title>dispatcher&#45;&gt;pairs_trading</title>
<path fill="none" stroke="black" d="M795.33,-444.18C790.5,-443.05 785.69,-441.98 781,-441 781,-441 536,-404 536,-404 514.67,-392.07 497.16,-370.52 485.4,-352.86"/>
<polygon fill="black" stroke="black" points="488.11,-350.6 479.78,-344.06 482.21,-354.37 488.11,-350.6"/>
</g>
<!-- smc_ict -->
<g id="node18" class="node">
<title>smc_ict</title>
<path fill="white" stroke="black" d="M913,-344C913,-344 843,-344 843,-344 837,-344 831,-338 831,-332 831,-332 831,-315 831,-315 831,-309 837,-303 843,-303 843,-303 913,-303 913,-303 919,-303 925,-309 925,-315 925,-315 925,-332 925,-332 925,-338 919,-344 913,-344"/>
<text text-anchor="middle" x="878" y="-320.4" font-family="Arial" font-size="12.00">SMC/ICT</text>
</g>
<!-- dispatcher&#45;&gt;smc_ict -->
<g id="edge16" class="edge">
<title>dispatcher&#45;&gt;smc_ict</title>
<path fill="none" stroke="black" d="M878,-440.86C878,-416.4 878,-379.87 878,-354.29"/>
<polygon fill="black" stroke="black" points="881.5,-354.06 878,-344.06 874.5,-354.06 881.5,-354.06"/>
</g>
<!-- stat_arb -->
<g id="node19" class="node">
<title>stat_arb</title>
<path fill="white" stroke="black" d="M1219,-344C1219,-344 1095,-344 1095,-344 1089,-344 1083,-338 1083,-332 1083,-332 1083,-315 1083,-315 1083,-309 1089,-303 1095,-303 1095,-303 1219,-303 1219,-303 1225,-303 1231,-309 1231,-315 1231,-315 1231,-332 1231,-332 1231,-338 1225,-344 1219,-344"/>
<text text-anchor="middle" x="1157" y="-320.4" font-family="Arial" font-size="12.00">Statistical Arbitrage</text>
</g>
<!-- dispatcher&#45;&gt;stat_arb -->
<g id="edge17" class="edge">
<title>dispatcher&#45;&gt;stat_arb</title>
<path fill="none" stroke="black" d="M960.75,-444.43C1004.97,-431.58 1054.27,-415.76 1074,-404 1097.19,-390.18 1119.05,-368.77 1134.51,-351.64"/>
<polygon fill="black" stroke="black" points="1137.15,-353.94 1141.14,-344.12 1131.9,-349.31 1137.15,-353.94"/>
</g>
<!-- volatility_arb -->
<g id="node20" class="node">
<title>volatility_arb</title>
<path fill="white" stroke="black" d="M800.5,-344C800.5,-344 683.5,-344 683.5,-344 677.5,-344 671.5,-338 671.5,-332 671.5,-332 671.5,-315 671.5,-315 671.5,-309 677.5,-303 683.5,-303 683.5,-303 800.5,-303 800.5,-303 806.5,-303 812.5,-309 812.5,-315 812.5,-315 812.5,-332 812.5,-332 812.5,-338 806.5,-344 800.5,-344"/>
<text text-anchor="middle" x="742" y="-320.4" font-family="Arial" font-size="12.00">Volatility Arbitrage</text>
</g>
<!-- dispatcher&#45;&gt;volatility_arb -->
<g id="edge18" class="edge">
<title>dispatcher&#45;&gt;volatility_arb</title>
<path fill="none" stroke="black" d="M853.06,-440.86C828.87,-415.52 792.34,-377.25 767.86,-351.59"/>
<polygon fill="black" stroke="black" points="770.11,-348.88 760.67,-344.06 765.04,-353.71 770.11,-348.88"/>
</g>
<!-- yield_anomaly -->
<g id="node21" class="node">
<title>yield_anomaly</title>
<path fill="white" stroke="black" d="M1053,-344C1053,-344 955,-344 955,-344 949,-344 943,-338 943,-332 943,-332 943,-315 943,-315 943,-309 949,-303 955,-303 955,-303 1053,-303 1053,-303 1059,-303 1065,-309 1065,-315 1065,-315 1065,-332 1065,-332 1065,-338 1059,-344 1053,-344"/>
<text text-anchor="middle" x="1004" y="-320.4" font-family="Arial" font-size="12.00">Yield Anomaly</text>
</g>
<!-- dispatcher&#45;&gt;yield_anomaly -->
<g id="edge19" class="edge">
<title>dispatcher&#45;&gt;yield_anomaly</title>
<path fill="none" stroke="black" d="M901.19,-440.97C911.28,-429.63 923.24,-416.17 934,-404 949.36,-386.64 966.56,-367.11 980.07,-351.74"/>
<polygon fill="black" stroke="black" points="982.79,-353.95 986.77,-344.13 977.53,-349.32 982.79,-353.95"/>
</g>
<!-- main -->
<g id="node9" class="node">
<title>main</title>
<polygon fill="#ffffcc" stroke="black" points="1244.5,-256 1069.5,-256 1069.5,-252 1065.5,-252 1065.5,-248 1069.5,-248 1069.5,-210 1065.5,-210 1065.5,-206 1069.5,-206 1069.5,-202 1244.5,-202 1244.5,-256"/>
<polyline fill="none" stroke="black" points="1069.5,-252 1073.5,-252 1073.5,-248 1069.5,-248 "/>
<polyline fill="none" stroke="black" points="1069.5,-210 1073.5,-210 1073.5,-206 1069.5,-206 "/>
<text text-anchor="middle" x="1157" y="-232.4" font-family="Arial" font-size="12.00">Main</text>
<text text-anchor="middle" x="1157" y="-219.4" font-family="Arial" font-size="12.00">(Integración y consenso)</text>
</g>
<!-- explainer -->
<g id="node10" class="node">
<title>explainer</title>
<polygon fill="#ffccff" stroke="black" points="1498.5,-155 1267.5,-155 1267.5,-151 1263.5,-151 1263.5,-147 1267.5,-147 1267.5,-109 1263.5,-109 1263.5,-105 1267.5,-105 1267.5,-101 1498.5,-101 1498.5,-155"/>
<polyline fill="none" stroke="black" points="1267.5,-151 1271.5,-151 1271.5,-147 1267.5,-147 "/>
<polyline fill="none" stroke="black" points="1267.5,-109 1271.5,-109 1271.5,-105 1267.5,-105 "/>
<text text-anchor="middle" x="1383" y="-131.4" font-family="Arial" font-size="12.00">GPT Explainer</text>
<text text-anchor="middle" x="1383" y="-118.4" font-family="Arial" font-size="12.00">(Interpretación en lenguaje natural)</text>
</g>
<!-- main&#45;&gt;explainer -->
<g id="edge30" class="edge">
<title>main&#45;&gt;explainer</title>
<path fill="none" stroke="black" d="M1216.38,-201.99C1246.36,-188.85 1282.91,-172.85 1314.12,-159.17"/>
<polygon fill="black" stroke="black" points="1315.87,-162.23 1323.63,-155.01 1313.06,-155.82 1315.87,-162.23"/>
<text text-anchor="middle" x="1309" y="-176" font-family="Arial" font-size="10.00">Resultado final</text>
</g>
<!-- dashboard -->
<g id="node11" class="node">
<title>dashboard</title>
<polygon fill="#ffddaa" stroke="black" points="1218.5,-54 1095.5,-54 1095.5,-50 1091.5,-50 1091.5,-46 1095.5,-46 1095.5,-8 1091.5,-8 1091.5,-4 1095.5,-4 1095.5,0 1218.5,0 1218.5,-54"/>
<polyline fill="none" stroke="black" points="1095.5,-50 1099.5,-50 1099.5,-46 1095.5,-46 "/>
<polyline fill="none" stroke="black" points="1095.5,-8 1099.5,-8 1099.5,-4 1095.5,-4 "/>
<text text-anchor="middle" x="1157" y="-30.4" font-family="Arial" font-size="12.00">Dashboard</text>
<text text-anchor="middle" x="1157" y="-17.4" font-family="Arial" font-size="12.00">(Visualización)</text>
</g>
<!-- main&#45;&gt;dashboard -->
<g id="edge31" class="edge">
<title>main&#45;&gt;dashboard</title>
<path fill="none" stroke="black" d="M1154.31,-201.68C1153.03,-187.81 1151.64,-170.5 1151,-155 1150.02,-131.02 1150.02,-124.98 1151,-101 1151.49,-89.13 1152.42,-76.21 1153.4,-64.57"/>
<polygon fill="black" stroke="black" points="1156.91,-64.59 1154.31,-54.32 1149.94,-63.98 1156.91,-64.59"/>
<text text-anchor="middle" x="1205" y="-125.5" font-family="Arial" font-size="10.00">Datos para visualización</text>
</g>
<!-- metrics -->
<g id="node25" class="node">
<title>metrics</title>
<path fill="white" stroke="black" d="M1596.5,-589.5C1596.5,-589.5 1443.5,-589.5 1443.5,-589.5 1437.5,-589.5 1431.5,-583.5 1431.5,-577.5 1431.5,-577.5 1431.5,-560.5 1431.5,-560.5 1431.5,-554.5 1437.5,-548.5 1443.5,-548.5 1443.5,-548.5 1596.5,-548.5 1596.5,-548.5 1602.5,-548.5 1608.5,-554.5 1608.5,-560.5 1608.5,-560.5 1608.5,-577.5 1608.5,-577.5 1608.5,-583.5 1602.5,-589.5 1596.5,-589.5"/>
<text text-anchor="middle" x="1520" y="-565.9" font-family="Arial" font-size="12.00">Métricas de Rendimiento</text>
</g>
<!-- main&#45;&gt;metrics -->
<g id="edge32" class="edge">
<title>main&#45;&gt;metrics</title>
<path fill="none" stroke="black" stroke-dasharray="5,2" d="M1244.67,-232.67C1376.8,-237.44 1620.39,-249.31 1704,-274 1722.88,-279.57 1730.62,-279.69 1743,-295 1887.64,-473.93 1794.27,-384.84 1777,-423 1747.72,-487.68 1674.82,-524.82 1614.12,-545.29"/>
<polygon fill="black" stroke="black" points="1612.91,-542 1604.49,-548.43 1615.08,-548.66 1612.91,-542"/>
<text text-anchor="middle" x="1871" y="-415" font-family="Arial" font-size="10.00">Métricas de efectividad</text>
</g>
<!-- explainer&#45;&gt;dashboard -->
<g id="edge33" class="edge">
<title>explainer&#45;&gt;dashboard</title>
<path fill="none" stroke="black" d="M1323.62,-100.99C1293.64,-87.85 1257.09,-71.85 1225.88,-58.17"/>
<polygon fill="black" stroke="black" points="1226.94,-54.82 1216.37,-54.01 1224.13,-61.23 1226.94,-54.82"/>
<text text-anchor="middle" x="1317.5" y="-75" font-family="Arial" font-size="10.00">Explicación textual</text>
</g>
<!-- broker_behavior&#45;&gt;main -->
<g id="edge20" class="edge">
<title>broker_behavior&#45;&gt;main</title>
<path fill="none" stroke="black" d="M1287.46,-302.82C1274.25,-293.67 1258.06,-282.88 1243,-274 1235.44,-269.54 1227.38,-265.07 1219.34,-260.77"/>
<polygon fill="black" stroke="black" points="1220.78,-257.57 1210.3,-256.01 1217.51,-263.77 1220.78,-257.57"/>
<text text-anchor="middle" x="1300" y="-277" font-family="Arial" font-size="10.00">Señal + Confianza</text>
</g>
<!-- carry_trade&#45;&gt;main -->
<g id="edge21" class="edge">
<title>carry_trade&#45;&gt;main</title>
<path fill="none" stroke="black" d="M642.41,-302.91C649.24,-300.1 656.27,-297.36 663,-295 696.06,-283.39 704.57,-280.52 739,-274 847.51,-253.44 973.82,-241.81 1058.95,-235.74"/>
<polygon fill="black" stroke="black" points="1059.39,-239.22 1069.12,-235.03 1058.9,-232.24 1059.39,-239.22"/>
<text text-anchor="middle" x="780" y="-277" font-family="Arial" font-size="10.00">Señal + Confianza</text>
</g>
<!-- dynamic_hedging&#45;&gt;main -->
<g id="edge22" class="edge">
<title>dynamic_hedging&#45;&gt;main</title>
<path fill="none" stroke="black" d="M1423.62,-302.95C1400.39,-293.41 1371.49,-282.23 1345,-274 1315.95,-264.97 1283.88,-256.81 1254.57,-250.05"/>
<polygon fill="black" stroke="black" points="1255.27,-246.62 1244.75,-247.81 1253.72,-253.44 1255.27,-246.62"/>
<text text-anchor="middle" x="1417" y="-277" font-family="Arial" font-size="10.00">Señal + Confianza</text>
</g>
<!-- liquidity_provision&#45;&gt;main -->
<g id="edge23" class="edge">
<title>liquidity_provision&#45;&gt;main</title>
<path fill="none" stroke="black" d="M371.81,-302.95C401.91,-292.32 441.07,-280.12 477,-274 682.16,-239.03 926.46,-231.35 1059.23,-229.96"/>
<polygon fill="black" stroke="black" points="1059.41,-233.46 1069.38,-229.86 1059.34,-226.46 1059.41,-233.46"/>
<text text-anchor="middle" x="518" y="-277" font-family="Arial" font-size="10.00">Señal + Confianza</text>
</g>
<!-- market_making&#45;&gt;main -->
<g id="edge24" class="edge">
<title>market_making&#45;&gt;main</title>
<path fill="none" stroke="black" d="M1571.87,-302.97C1564.29,-300.12 1556.47,-297.36 1549,-295 1451.37,-264.2 1335.2,-247.27 1254.79,-238.47"/>
<polygon fill="black" stroke="black" points="1254.99,-234.97 1244.68,-237.39 1254.25,-241.93 1254.99,-234.97"/>
<text text-anchor="middle" x="1548" y="-277" font-family="Arial" font-size="10.00">Señal + Confianza</text>
</g>
<!-- pairs_trading&#45;&gt;main -->
<g id="edge25" class="edge">
<title>pairs_trading&#45;&gt;main</title>
<path fill="none" stroke="black" d="M513.08,-302.97C539.47,-292.27 574.01,-280.01 606,-274 762.86,-244.55 948.45,-234.8 1059.25,-231.57"/>
<polygon fill="black" stroke="black" points="1059.5,-235.07 1069.4,-231.29 1059.31,-228.07 1059.5,-235.07"/>
<text text-anchor="middle" x="647" y="-277" font-family="Arial" font-size="10.00">Señal + Confianza</text>
</g>
<!-- smc_ict&#45;&gt;main -->
<g id="edge26" class="edge">
<title>smc_ict&#45;&gt;main</title>
<path fill="none" stroke="black" d="M909.89,-302.87C926.93,-293.07 948.56,-281.69 969,-274 997.75,-263.18 1030.01,-254.47 1059.58,-247.75"/>
<polygon fill="black" stroke="black" points="1060.49,-251.13 1069.5,-245.54 1058.97,-244.3 1060.49,-251.13"/>
<text text-anchor="middle" x="1010" y="-277" font-family="Arial" font-size="10.00">Señal + Confianza</text>
</g>
<!-- stat_arb&#45;&gt;main -->
<g id="edge27" class="edge">
<title>stat_arb&#45;&gt;main</title>
<path fill="none" stroke="black" d="M1157,-302.88C1157,-292.28 1157,-278.84 1157,-266.39"/>
<polygon fill="black" stroke="black" points="1160.5,-266.26 1157,-256.26 1153.5,-266.26 1160.5,-266.26"/>
<text text-anchor="middle" x="1198" y="-277" font-family="Arial" font-size="10.00">Señal + Confianza</text>
</g>
<!-- volatility_arb&#45;&gt;main -->
<g id="edge28" class="edge">
<title>volatility_arb&#45;&gt;main</title>
<path fill="none" stroke="black" d="M782.28,-302.91C804.45,-292.87 832.72,-281.27 859,-274 924.64,-255.85 1000.6,-244.78 1059.41,-238.28"/>
<polygon fill="black" stroke="black" points="1059.87,-241.75 1069.44,-237.2 1059.12,-234.79 1059.87,-241.75"/>
<text text-anchor="middle" x="900" y="-277" font-family="Arial" font-size="10.00">Señal + Confianza</text>
</g>
<!-- yield_anomaly&#45;&gt;main -->
<g id="edge29" class="edge">
<title>yield_anomaly&#45;&gt;main</title>
<path fill="none" stroke="black" d="M1029.14,-302.9C1041.45,-293.66 1056.67,-282.78 1071,-274 1078.19,-269.59 1085.88,-265.22 1093.59,-261.03"/>
<polygon fill="black" stroke="black" points="1095.45,-264.01 1102.63,-256.22 1092.16,-257.83 1095.45,-264.01"/>
<text text-anchor="middle" x="1112" y="-277" font-family="Arial" font-size="10.00">Señal + Confianza</text>
</g>
<!-- config -->
<g id="node24" class="node">
<title>config</title>
<path fill="white" stroke="black" d="M1401,-589.5C1401,-589.5 1251,-589.5 1251,-589.5 1245,-589.5 1239,-583.5 1239,-577.5 1239,-577.5 1239,-560.5 1239,-560.5 1239,-554.5 1245,-548.5 1251,-548.5 1251,-548.5 1401,-548.5 1401,-548.5 1407,-548.5 1413,-554.5 1413,-560.5 1413,-560.5 1413,-577.5 1413,-577.5 1413,-583.5 1407,-589.5 1401,-589.5"/>
<text text-anchor="middle" x="1326" y="-565.9" font-family="Arial" font-size="12.00">Configuración Dinámica</text>
</g>
<!-- config&#45;&gt;loader -->
<g id="edge34" class="edge">
<title>config&#45;&gt;loader</title>
<path fill="none" stroke="black" stroke-dasharray="5,2" d="M1307.81,-589.61C1290.07,-608.01 1261.26,-633.68 1230,-644.5 1158.5,-669.25 622.16,-663.82 549,-644.5 517.19,-636.1 485.02,-618.15 460.29,-601.86"/>
<polygon fill="black" stroke="black" points="462.11,-598.87 451.86,-596.18 458.2,-604.67 462.11,-598.87"/>
<text text-anchor="middle" x="552" y="-660.5" font-family="Arial" font-size="10.00">Configura</text>
</g>
<!-- config&#45;&gt;dispatcher -->
<g id="edge35" class="edge">
<title>config&#45;&gt;dispatcher</title>
<path fill="none" stroke="black" stroke-dasharray="5,2" d="M1261.17,-548.45C1250.79,-545.61 1240.13,-542.85 1230,-540.5 1117.85,-514.5 1087.37,-520.04 975,-495 973.54,-494.67 972.06,-494.34 970.58,-494"/>
<polygon fill="black" stroke="black" points="971.23,-490.56 960.7,-491.67 969.63,-497.37 971.23,-490.56"/>
<text text-anchor="middle" x="1167.5" y="-516" font-family="Arial" font-size="10.00">Configura</text>
</g>
<!-- config&#45;&gt;main -->
<g id="edge36" class="edge">
<title>config&#45;&gt;main</title>
<path fill="none" stroke="black" stroke-dasharray="5,2" d="M1390.41,-548.49C1401.23,-545.57 1412.39,-542.78 1423,-540.5 1523.17,-518.95 1559.38,-544.66 1649,-495 1731.12,-449.49 1769.44,-372.88 1717,-295 1704.9,-277.03 1693.91,-279.68 1673,-274 1596.76,-253.29 1382.02,-240.28 1254.87,-234.16"/>
<polygon fill="black" stroke="black" points="1254.89,-230.65 1244.74,-233.67 1254.56,-237.65 1254.89,-230.65"/>
<text text-anchor="middle" x="1751.5" y="-415" font-family="Arial" font-size="10.00">Configura</text>
</g>
<!-- tests -->
<g id="node26" class="node">
<title>tests</title>
<path fill="white" stroke="black" d="M1209,-589.5C1209,-589.5 1061,-589.5 1061,-589.5 1055,-589.5 1049,-583.5 1049,-577.5 1049,-577.5 1049,-560.5 1049,-560.5 1049,-554.5 1055,-548.5 1061,-548.5 1061,-548.5 1209,-548.5 1209,-548.5 1215,-548.5 1221,-554.5 1221,-560.5 1221,-560.5 1221,-577.5 1221,-577.5 1221,-583.5 1215,-589.5 1209,-589.5"/>
<text text-anchor="middle" x="1135" y="-565.9" font-family="Arial" font-size="12.00">Pruebas Automatizadas</text>
</g>
<!-- tests&#45;&gt;loader -->
<g id="edge39" class="edge">
<title>tests&#45;&gt;loader</title>
<path fill="none" stroke="black" stroke-dasharray="5,2" d="M1117.04,-589.6C1099.52,-608 1071.03,-633.67 1040,-644.5 988.49,-662.48 601.75,-658.43 549,-644.5 517.19,-636.1 485.02,-618.15 460.29,-601.86"/>
<polygon fill="black" stroke="black" points="462.11,-598.87 451.86,-596.18 458.2,-604.67 462.11,-598.87"/>
<text text-anchor="middle" x="921" y="-660.5" font-family="Arial" font-size="10.00">Verifica</text>
</g>
<!-- tests&#45;&gt;dispatcher -->
<g id="edge40" class="edge">
<title>tests&#45;&gt;dispatcher</title>
<path fill="none" stroke="black" stroke-dasharray="5,2" d="M1070.84,-548.48C1060.57,-545.63 1050.03,-542.86 1040,-540.5 1000.42,-531.17 987.18,-540.46 950,-524 937.28,-518.37 924.75,-510.06 913.8,-501.6"/>
<polygon fill="black" stroke="black" points="915.75,-498.68 905.76,-495.14 911.37,-504.13 915.75,-498.68"/>
<text text-anchor="middle" x="966.5" y="-516" font-family="Arial" font-size="10.00">Verifica</text>
</g>
<!-- tests&#45;&gt;main -->
<g id="edge41" class="edge">
<title>tests&#45;&gt;main</title>
<path fill="none" stroke="black" stroke-dasharray="5,2" d="M1198.6,-548.44C1209.04,-545.56 1219.78,-542.8 1230,-540.5 1439.31,-493.44 1580.21,-586.49 1693,-404 1718.47,-362.79 1723.53,-332.61 1693,-295 1665.9,-261.62 1402.33,-242.7 1255.17,-234.66"/>
<polygon fill="black" stroke="black" points="1254.95,-231.14 1244.78,-234.1 1254.57,-238.13 1254.95,-231.14"/>
<text text-anchor="middle" x="1703.5" y="-415" font-family="Arial" font-size="10.00">Verifica</text>
</g>
<!-- tests&#45;&gt;broker_behavior -->
<g id="edge42" class="edge">
<title>tests&#45;&gt;broker_behavior</title>
<path fill="none" stroke="black" stroke-dasharray="5,2" d="M1147.73,-548.25C1169.11,-515.12 1210.62,-450.98 1218,-441 1241.37,-409.38 1270.5,-375 1290.7,-351.84"/>
<polygon fill="black" stroke="black" points="1293.49,-353.96 1297.45,-344.14 1288.23,-349.35 1293.49,-353.96"/>
<text text-anchor="middle" x="1234.5" y="-465.5" font-family="Arial" font-size="10.00">Verifica</text>
</g>
<!-- tests&#45;&gt;carry_trade -->
<g id="edge43" class="edge">
<title>tests&#45;&gt;carry_trade</title>
<path fill="none" stroke="black" stroke-dasharray="5,2" d="M1074.9,-548.47C1063.42,-545.34 1051.42,-542.49 1040,-540.5 963.39,-527.14 752.85,-544.66 693,-495 647.71,-457.42 620.54,-392.08 607.8,-354.13"/>
<polygon fill="black" stroke="black" points="610.99,-352.63 604.58,-344.2 604.33,-354.79 610.99,-352.63"/>
<text text-anchor="middle" x="709.5" y="-465.5" font-family="Arial" font-size="10.00">Verifica</text>
</g>
<!-- tests&#45;&gt;dynamic_hedging -->
<g id="edge44" class="edge">
<title>tests&#45;&gt;dynamic_hedging</title>
<path fill="none" stroke="black" stroke-dasharray="5,2" d="M1174.72,-548.49C1198.59,-535.5 1228.59,-516.83 1251,-495 1271.66,-474.87 1266.89,-461.68 1287,-441 1302.56,-425 1307.21,-420.11 1328,-412 1353.88,-401.9 1365.08,-416.3 1390,-404 1413.84,-392.23 1434.74,-370.38 1449.04,-352.56"/>
<polygon fill="black" stroke="black" points="1452.16,-354.24 1455.52,-344.19 1446.63,-349.96 1452.16,-354.24"/>
<text text-anchor="middle" x="1303.5" y="-465.5" font-family="Arial" font-size="10.00">Verifica</text>
</g>
<!-- tests&#45;&gt;liquidity_provision -->
<g id="edge45" class="edge">
<title>tests&#45;&gt;liquidity_provision</title>
<path fill="none" stroke="black" stroke-dasharray="5,2" d="M1075.71,-548.44C1063.99,-545.26 1051.7,-542.39 1040,-540.5 852.07,-510.14 800.25,-552.31 612,-524 562.43,-516.54 547.07,-518.89 503,-495 435.41,-458.36 374.02,-390.52 342.75,-352.39"/>
<polygon fill="black" stroke="black" points="345.19,-349.84 336.18,-344.27 339.75,-354.25 345.19,-349.84"/>
<text text-anchor="middle" x="519.5" y="-465.5" font-family="Arial" font-size="10.00">Verifica</text>
</g>
<!-- tests&#45;&gt;market_making -->
<g id="edge46" class="edge">
<title>tests&#45;&gt;market_making</title>
<path fill="none" stroke="black" stroke-dasharray="5,2" d="M1194.14,-548.42C1293.64,-514.86 1489.51,-445.9 1549,-404 1568.85,-390.02 1586.84,-369.33 1599.61,-352.55"/>
<polygon fill="black" stroke="black" points="1602.66,-354.32 1605.79,-344.2 1597.03,-350.15 1602.66,-354.32"/>
<text text-anchor="middle" x="1490.5" y="-465.5" font-family="Arial" font-size="10.00">Verifica</text>
</g>
<!-- tests&#45;&gt;pairs_trading -->
<g id="edge47" class="edge">
<title>tests&#45;&gt;pairs_trading</title>
<path fill="none" stroke="black" stroke-dasharray="5,2" d="M1075.7,-548.46C1063.99,-545.27 1051.69,-542.4 1040,-540.5 995.33,-533.24 673.52,-544.16 633,-524 558.61,-486.99 505.98,-399.02 482.59,-353.26"/>
<polygon fill="black" stroke="black" points="485.65,-351.55 478.04,-344.17 479.39,-354.68 485.65,-351.55"/>
<text text-anchor="middle" x="604.5" y="-465.5" font-family="Arial" font-size="10.00">Verifica</text>
</g>
<!-- tests&#45;&gt;smc_ict -->
<g id="edge48" class="edge">
<title>tests&#45;&gt;smc_ict</title>
<path fill="none" stroke="black" stroke-dasharray="5,2" d="M1104.25,-548.4C1082.83,-534.33 1053.94,-514.48 1030,-495 1007.2,-476.45 953.23,-426.24 934,-404 920.15,-387.99 906.44,-368.59 896.04,-352.96"/>
<polygon fill="black" stroke="black" points="898.74,-350.69 890.33,-344.25 892.89,-354.53 898.74,-350.69"/>
<text text-anchor="middle" x="1046.5" y="-465.5" font-family="Arial" font-size="10.00">Verifica</text>
</g>
<!-- tests&#45;&gt;stat_arb -->
<g id="edge49" class="edge">
<title>tests&#45;&gt;stat_arb</title>
<path fill="none" stroke="black" stroke-dasharray="5,2" d="M1136.76,-548.48C1140.6,-506.01 1149.73,-404.94 1154.3,-354.38"/>
<polygon fill="black" stroke="black" points="1157.81,-354.38 1155.23,-344.11 1150.84,-353.75 1157.81,-354.38"/>
<text text-anchor="middle" x="1162.5" y="-465.5" font-family="Arial" font-size="10.00">Verifica</text>
</g>
<!-- tests&#45;&gt;volatility_arb -->
<g id="edge50" class="edge">
<title>tests&#45;&gt;volatility_arb</title>
<path fill="none" stroke="black" stroke-dasharray="5,2" d="M1071.94,-548.43C1061.34,-545.52 1050.41,-542.75 1040,-540.5 977.1,-526.91 797.25,-542.65 754,-495 719.27,-456.74 726.24,-391.64 734.24,-353.92"/>
<polygon fill="black" stroke="black" points="737.68,-354.58 736.49,-344.05 730.86,-353.02 737.68,-354.58"/>
<text text-anchor="middle" x="770.5" y="-465.5" font-family="Arial" font-size="10.00">Verifica</text>
</g>
<!-- tests&#45;&gt;yield_anomaly -->
<g id="edge51" class="edge">
<title>tests&#45;&gt;yield_anomaly</title>
<path fill="none" stroke="black" stroke-dasharray="5,2" d="M1124.5,-548.48C1101.46,-505.65 1046.36,-403.24 1019.4,-353.12"/>
<polygon fill="black" stroke="black" points="1022.37,-351.26 1014.55,-344.11 1016.2,-354.57 1022.37,-351.26"/>
<text text-anchor="middle" x="1111.5" y="-465.5" font-family="Arial" font-size="10.00">Verifica</text>
</g>
<!-- validation -->
<g id="node27" class="node">
<title>validation</title>
<path fill="white" stroke="black" d="M1018.5,-589.5C1018.5,-589.5 891.5,-589.5 891.5,-589.5 885.5,-589.5 879.5,-583.5 879.5,-577.5 879.5,-577.5 879.5,-560.5 879.5,-560.5 879.5,-554.5 885.5,-548.5 891.5,-548.5 891.5,-548.5 1018.5,-548.5 1018.5,-548.5 1024.5,-548.5 1030.5,-554.5 1030.5,-560.5 1030.5,-560.5 1030.5,-577.5 1030.5,-577.5 1030.5,-583.5 1024.5,-589.5 1018.5,-589.5"/>
<text text-anchor="middle" x="955" y="-565.9" font-family="Arial" font-size="12.00">Validación de Datos</text>
</g>
<!-- validation&#45;&gt;loader -->
<g id="edge37" class="edge">
<title>validation&#45;&gt;loader</title>
<path fill="none" stroke="black" stroke-dasharray="5,2" d="M939.64,-589.55C924.51,-607.91 899.56,-633.55 871,-644.5 804.19,-670.11 618.18,-662.77 549,-644.5 517.19,-636.1 485.02,-618.15 460.29,-601.86"/>
<polygon fill="black" stroke="black" points="462.11,-598.87 451.86,-596.18 458.2,-604.67 462.11,-598.87"/>
<text text-anchor="middle" x="779" y="-660.5" font-family="Arial" font-size="10.00">Valida</text>
</g>
<!-- validation&#45;&gt;dispatcher -->
<g id="edge38" class="edge">
<title>validation&#45;&gt;dispatcher</title>
<path fill="none" stroke="black" stroke-dasharray="5,2" d="M890.57,-548.29C880.01,-542.18 870.43,-534.26 864,-524 860.46,-518.36 859.77,-511.86 860.66,-505.35"/>
<polygon fill="black" stroke="black" points="864.16,-505.79 863.2,-495.24 857.37,-504.09 864.16,-505.79"/>
<text text-anchor="middle" x="877.5" y="-516" font-family="Arial" font-size="10.00">Valida</text>
</g>
<!-- legend_node -->
<g id="node28" class="node">
<title>legend_node</title>
<path fill="lightgrey" stroke="transparent" d="M1319.5,-759.5C1319.5,-759.5 1138.5,-759.5 1138.5,-759.5 1132.5,-759.5 1126.5,-753.5 1126.5,-747.5 1126.5,-747.5 1126.5,-698.5 1126.5,-698.5 1126.5,-692.5 1132.5,-686.5 1138.5,-686.5 1138.5,-686.5 1319.5,-686.5 1319.5,-686.5 1325.5,-686.5 1331.5,-692.5 1331.5,-698.5 1331.5,-698.5 1331.5,-747.5 1331.5,-747.5 1331.5,-753.5 1325.5,-759.5 1319.5,-759.5"/>
<text text-anchor="start" x="1151" y="-735" font-family="Arial" font-size="10.00">→ Flujo de datos principal</text>
<text text-anchor="start" x="1151" y="-720" font-family="Arial" font-size="10.00">&#45;&#45;→ Interacción secundaria</text>
<text text-anchor="start" x="1151" y="-705" font-family="Arial" font-size="10.00">Colores indican tipo de componente</text>
</g>
</g>
</svg>
